<svg xmlns="http://www.w3.org/2000/svg" viewBox="0 0 64 64">
  <path d="M32 53.5 L5.4 45 A28 28 0 0 1 58.6 45 Z" fill="#e9a53e"/>
  <path d="M24.5 52.5 Q19 53 18 57 Q23.5 57 27 54.5 Z" fill="#c4842a"/>
  <path d="M39.5 52.5 Q45 53 46 57 Q40.5 57 37 54.5 Z" fill="#c4842a"/>
  <path d="M32 53.5L5.4 45 M32 53.5L9.4 37 M32 53.5L15.6 31 M32 53.5L23.4 27 M32 53.5L32 25.5 M32 53.5L40.6 27 M32 53.5L48.4 31 M32 53.5L54.6 37 M32 53.5L58.6 45" stroke="#1a1206" stroke-width="1.3" fill="none" stroke-linecap="round"/>
</svg>
